<svg width="48" height="48" viewBox="0 0 48 48" fill="none" xmlns="http://www.w3.org/2000/svg">
<mask id="path-1-inside-1_3458_3759" fill="white">
<path d="M0 24C0 10.7452 10.7452 0 24 0C37.2548 0 48 10.7452 48 24C48 37.2548 37.2548 48 24 48C10.7452 48 0 37.2548 0 24Z"/>
</mask>
<path d="M0 24C0 10.7452 10.7452 0 24 0C37.2548 0 48 10.7452 48 24C48 37.2548 37.2548 48 24 48C10.7452 48 0 37.2548 0 24Z" fill="white"/>
<path d="M24 48V47C11.2975 47 1 36.7025 1 24H0H-1C-1 37.8071 10.1929 49 24 49V48ZM48 24H47C47 36.7025 36.7025 47 24 47V48V49C37.8071 49 49 37.8071 49 24H48ZM24 0V1C36.7025 1 47 11.2975 47 24H48H49C49 10.1929 37.8071 -1 24 -1V0ZM24 0V-1C10.1929 -1 -1 10.1929 -1 24H0H1C1 11.2975 11.2975 1 24 1V0Z" fill="#128C88" mask="url(#path-1-inside-1_3458_3759)"/>
<path d="M30.6668 22.3332C30.6668 26.494 26.051 30.8273 24.501 32.1657C24.3566 32.2742 24.1808 32.333 24.0002 32.333C23.8195 32.333 23.6437 32.2742 23.4993 32.1657C21.9493 30.8273 17.3335 26.494 17.3335 22.3332C17.3335 20.5651 18.0359 18.8694 19.2861 17.6191C20.5364 16.3689 22.2321 15.6665 24.0002 15.6665C25.7683 15.6665 27.464 16.3689 28.7142 17.6191C29.9645 18.8694 30.6668 20.5651 30.6668 22.3332Z" stroke="#128C88" stroke-width="1.25" stroke-linecap="round" stroke-linejoin="round"/>
<path d="M24 24.8335C25.3807 24.8335 26.5 23.7142 26.5 22.3335C26.5 20.9528 25.3807 19.8335 24 19.8335C22.6193 19.8335 21.5 20.9528 21.5 22.3335C21.5 23.7142 22.6193 24.8335 24 24.8335Z" stroke="#128C88" stroke-width="1.25" stroke-linecap="round" stroke-linejoin="round"/>
</svg>
