<svg width="56" height="56" viewBox="0 0 56 56" fill="none" xmlns="http://www.w3.org/2000/svg">
<circle cx="28" cy="28" r="28" fill="#F4F7FE"/>
<path d="M27.5 20.1133C28.1276 20.1133 28.6364 20.6221 28.6364 21.2496V29.2042C28.6364 29.8318 28.1276 30.3406 27.5 30.3406C26.8724 30.3406 26.3636 29.8318 26.3636 29.2042V21.2496C26.3636 20.6221 26.8724 20.1133 27.5 20.1133Z" fill="#EA0000"/>
<path d="M27.5 34.8866C28.4413 34.8866 29.2045 34.1234 29.2045 33.1821C29.2045 32.2407 28.4413 31.4775 27.5 31.4775C26.5586 31.4775 25.7954 32.2407 25.7954 33.1821C25.7954 34.1234 26.5586 34.8866 27.5 34.8866Z" fill="#EA0000"/>
<path fill-rule="evenodd" clip-rule="evenodd" d="M15 27.5C15 20.5964 20.5964 15 27.5 15C34.4035 15 40 20.5964 40 27.5C40 34.4035 34.4035 40 27.5 40C20.5964 40 15 34.4035 15 27.5ZM27.5 17.2727C21.8516 17.2727 17.2727 21.8516 17.2727 27.5C17.2727 33.1484 21.8516 37.7273 27.5 37.7273C33.1484 37.7273 37.7273 33.1484 37.7273 27.5C37.7273 21.8516 33.1484 17.2727 27.5 17.2727Z" fill="#EA0000"/>
</svg>
