<svg width="111" height="57" viewBox="0 0 111 57" fill="none" xmlns="http://www.w3.org/2000/svg">
<path d="M89.0087 32.8433H96.2265V30.726L86.1831 30.7002L86.1523 42.2421H88.978L89.0087 37.8267L94.7829 37.8525V35.7611L89.0087 35.7352V32.8433Z" fill="#385C7F"/>
<path d="M71.8701 41.2102V38.7314C72.4844 39.1962 74.4808 40.2548 76.9379 40.2806C78.4122 40.2806 79.61 39.8417 79.61 38.9121C79.61 38.0859 78.7193 37.8277 76.9379 37.3629C74.8801 36.8207 73.9279 36.5366 73.2829 36.0719C72.3615 35.4005 71.993 34.6775 71.993 33.748C71.993 32.8701 72.3922 31.9664 73.3137 31.3983C74.2351 30.8044 75.6479 30.4688 76.9686 30.4688C78.6271 30.4688 80.2857 30.7528 81.6678 31.4241V33.7222C80.2857 32.9992 78.8114 32.6377 76.9686 32.6377C76.2929 32.6377 74.8801 32.7926 74.8801 33.748C74.8801 34.5743 76.6922 34.8841 76.9686 34.9616C79.4564 35.5554 80.1628 35.8911 81.0228 36.3817C82.7121 37.3371 82.5278 38.6023 82.5278 38.9121C82.5278 39.9192 82.0364 40.8229 80.9921 41.4684C79.9478 42.1139 78.6272 42.4238 76.9072 42.4238C75.0644 42.4496 73.283 42.0365 71.8701 41.2102Z" fill="#385C7F"/>
<path d="M109.956 41.7779C107.929 42.6817 105.288 42.7075 103.199 41.9845C101.448 41.3906 100.005 40.1512 99.3598 38.6536C98.7148 37.1302 98.7763 35.3227 99.6055 33.8509C101.387 30.6234 106.424 29.6938 109.987 31.2431V33.6186C108.605 32.8439 106.762 32.5083 105.103 32.8698C103.783 33.1538 102.646 33.9542 102.124 35.0387C101.602 36.1232 101.694 37.4659 102.4 38.447C103.936 40.6418 107.653 40.7193 109.956 39.4541V41.7779Z" fill="#385C7F"/>
<path d="M82.5277 51.022H76.7842V53.8106H82.5277V51.022ZM81.3605 52.9069H77.9513V51.8482H81.3605V52.9069Z" fill="#385C7F"/>
<path d="M71.8776 51.049L71.8755 51.9785L75.469 51.9844L75.4712 51.0549L71.8776 51.049Z" fill="#385C7F"/>
<path d="M71.7783 56.2633H75.5561V52.8291H71.7783V56.2633ZM72.9762 53.7586H74.3583V55.3337H72.9762V53.7586Z" fill="#385C7F"/>
<path d="M71.8786 49.3219L71.8765 50.2515L75.47 50.2574L75.4721 49.3278L71.8786 49.3219Z" fill="#385C7F"/>
<path d="M74.2974 46.2964H73.0996V47.51H71.5332V48.4653L75.5874 48.4912V47.51H74.2667L74.2974 46.2964Z" fill="#385C7F"/>
<path d="M82.4361 49.1627C82.8354 48.8529 83.2347 48.4655 83.5418 47.9491H82.4361C82.2825 48.1815 82.0368 48.3881 81.8525 48.5172C81.7604 48.3623 81.6375 48.2073 81.484 47.9491C81.9447 47.6135 82.5282 47.0454 82.8661 46.6064H81.699C81.5147 46.8647 81.2997 47.0454 81.0847 47.2261C81.0233 47.0712 80.9004 46.7872 80.839 46.6064H79.7947C80.1018 47.6393 80.7468 48.6979 81.3304 49.4209H78.3511C79.5183 48.0266 79.549 46.6064 79.549 46.6064H76.5083V47.4844H78.3511C78.259 47.7942 78.044 48.259 77.7983 48.543C77.6447 48.4139 77.4912 48.259 77.3069 48.0266H76.1705C76.539 48.5688 77.184 49.1885 77.184 49.1885C76.9383 49.4209 76.4776 49.7566 75.894 50.0148V51.0734C76.2933 50.8669 76.8462 50.6087 77.3069 50.3246H82.3132C82.8354 50.6861 83.4189 51.0476 83.6339 51.1251V50.0148C83.4189 49.8857 82.7739 49.55 82.4361 49.1627Z" fill="#385C7F"/>
<path d="M82.2521 54.1724H81.0543L80.3479 55.3343H79.0886L78.3822 54.1724H77.1536L77.8601 55.3343H76.1094V56.2638H83.3271V55.3343H81.5764L82.2521 54.1724Z" fill="#385C7F"/>
<path d="M91.7427 51.4353H89.8077V50.6607H91.2206V48.2335H89.8077V47.4847H91.7427V46.5552H86.1221V52.3649H91.7427V51.4353ZM87.2585 47.4847H88.6713V48.2335H87.2585V47.4847ZM87.2585 49.0598H90.2377V49.8344H87.2585V49.0598ZM88.6713 51.4353H87.2585V50.6607H88.6713V51.4353Z" fill="#385C7F"/>
<path d="M93.0015 51.0216C93.1857 50.4535 93.4315 49.6014 93.6772 48.7494H97.1171V47.7682H93.9229C94.0764 47.1227 94.23 46.5804 94.2607 46.2964H93.0322C92.8172 47.2518 92.08 49.9629 91.7422 50.9958L93.0015 51.0216Z" fill="#385C7F"/>
<path d="M95.7659 52.8808L87.0125 52.855V55.3338H85.6304V56.2633L97.1788 56.2891V55.3596H95.7659V52.8808ZM89.5925 55.3596H88.2103V53.8362H89.5925V55.3596ZM92.0496 55.3596H90.6674V53.8362H92.0496V55.3596ZM94.5067 55.3596H93.1245V53.8362H94.5067V55.3596Z" fill="#385C7F"/>
<path d="M95.7047 51.9252H97.0562C96.6876 51.4862 95.5512 50.0919 95.2747 49.7046H93.9233C94.384 50.3759 95.3055 51.4346 95.7047 51.9252Z" fill="#385C7F"/>
<path d="M100.619 56.315L109.434 56.3408V52.6743L100.619 52.6484V56.315ZM108.266 55.4629H101.786V54.8948H108.266V55.4629ZM108.266 54.0428H101.786V53.5005H108.266V54.0428Z" fill="#385C7F"/>
<path d="M105.594 46.1675H104.55C102.892 47.0454 101.172 47.8458 99.1445 48.5172V49.6275L100.189 49.2402V52.1579L109.956 52.1837V49.266L111 49.6533V48.543C108.973 47.8717 107.222 47.0712 105.594 46.1675ZM105.042 47.0712C105.625 47.3811 106.239 47.6909 106.946 48.0266H103.137C103.844 47.6909 104.489 47.3811 105.042 47.0712ZM104.489 51.4349H103.752L103.076 50.3763H101.939L102.615 51.4349H101.356V50.0406H104.489V51.4349ZM108.727 51.4349H107.468L108.144 50.3763H107.007L106.332 51.4349H105.594V50.0406H108.727V51.4349ZM100.25 49.2402C100.65 49.0852 101.018 48.9303 101.387 48.7754H108.697C109.065 48.9303 109.434 49.0852 109.833 49.2402H100.25Z" fill="#385C7F"/>
<mask id="mask0_3442_3170" style="mask-type:luminance" maskUnits="userSpaceOnUse" x="0" y="0" width="76" height="47">
<path d="M70.2425 13.8916C68.154 17.1708 66.5875 19.2881 63.0247 23.0063V23.0321C68.8911 19.7787 73.2217 14.2789 75.1874 11.1804C75.4331 10.7673 75.6481 10.3541 75.6481 9.88936L75.6788 2.76282L75.6481 2.737C74.5424 5.83549 72.5153 10.3541 70.2425 13.8916ZM0 0L1.16713 10.9997C1.32069 12.0325 1.9964 12.9362 2.91781 13.6334C6.35776 16.3187 15.2341 20.7341 21.9911 23.8068V23.8326C15.9405 22.4383 7.49417 19.0299 2.79496 16.3962H2.76424C2.82567 17.0417 2.97924 18.4619 3.13281 19.1332C3.74708 21.9993 6.75704 24.9945 9.79771 26.4405C13.9134 28.377 15.7869 29.0484 19.4418 30.2878V30.3136C15.2648 30.0037 12.1934 29.2808 11.5177 29.1517C11.487 29.1517 11.487 29.1517 11.487 29.1775C15.5412 37.1045 38.7301 37.6983 40.4501 37.6209C40.4501 37.6209 34.5838 40.8485 19.4418 42.501L19.4111 42.5268C21.6532 44.8507 23.6189 45.8061 25.5232 45.4704C31.1438 44.5408 37.6551 42.4494 42.8151 39.6865C42.8151 39.7124 42.8151 39.7124 42.8151 39.7124C37.993 43.4564 31.7274 45.2896 26.9974 46.5549V46.5807C35.4745 46.6323 41.5558 44.2568 45.9172 42.4494C46.1322 42.3461 46.3164 42.501 46.3164 42.6043V44.8507C46.3164 44.9798 46.47 45.0573 46.6236 45.0056C54.3942 43.0691 54.8549 44.9798 54.8549 44.9798H54.8856C54.7934 43.4822 53.9335 41.8555 48.9271 41.4682V41.4423C49.4492 40.7452 54.5784 37.3885 57.0663 38.034C59.0934 38.5504 58.9091 39.5316 58.5098 39.7382L58.5405 39.764C58.7862 39.7382 59.0012 39.6607 59.032 39.6349C59.7384 39.325 59.9841 38.6021 59.6155 38.0082C59.4619 37.7758 59.2162 37.5951 58.9705 37.4918C59.7998 36.588 58.9091 33.2313 53.7185 32.7924C50.8928 32.5342 49.5107 32.6633 49.0192 32.6891V32.6633C49.7564 32.4567 53.1963 31.6563 57.4963 32.4309C65.7583 26.9311 72.8839 21.4829 74.6653 19.2623C75.2488 18.5135 75.6174 17.8422 75.6174 17.0417V13.4268L75.5867 13.401C75.1874 14.1756 73.1296 16.422 69.4132 19.443C62.8098 24.7621 61.4891 23.1354 58.9398 24.5556C57.3427 25.4593 55.1006 27.4217 52.7971 29.0484C50.6471 30.4169 48.405 31.6563 46.7771 31.6563C41.9551 31.6563 39.9894 23.6777 29.731 18.7975C18.0904 13.2719 4.23851 5.80967 0.0307157 0H0Z" fill="white"/>
</mask>
<g mask="url(#mask0_3442_3170)">
<path d="M2.73301 -11.7739L85.9367 1.8078L72.8526 58.5102L-10.3511 44.9285L2.73301 -11.7739Z" fill="url(#paint0_radial_3442_3170)"/>
</g>
<defs>
<radialGradient id="paint0_radial_3442_3170" cx="0" cy="0" r="1" gradientTransform="matrix(78.8248 12.8575 5.55156 -24.0542 42.2143 39.66)" gradientUnits="userSpaceOnUse">
<stop stop-color="#008581"/>
<stop offset="0.00050354" stop-color="#008581"/>
<stop offset="0.1726" stop-color="#098984"/>
<stop offset="0.4589" stop-color="#23928E"/>
<stop offset="0.8219" stop-color="#4CA19D"/>
<stop offset="1" stop-color="#63A9A5"/>
</radialGradient>
</defs>
</svg>
