<svg width="48" height="48" viewBox="0 0 48 48" fill="none" xmlns="http://www.w3.org/2000/svg">
<mask id="path-1-inside-1_3458_3742" fill="white">
<path d="M0 24C0 10.7452 10.7452 0 24 0C37.2548 0 48 10.7452 48 24C48 37.2548 37.2548 48 24 48C10.7452 48 0 37.2548 0 24Z"/>
</mask>
<path d="M0 24C0 10.7452 10.7452 0 24 0C37.2548 0 48 10.7452 48 24C48 37.2548 37.2548 48 24 48C10.7452 48 0 37.2548 0 24Z" fill="white"/>
<path d="M24 48V47C11.2975 47 1 36.7025 1 24H0H-1C-1 37.8071 10.1929 49 24 49V48ZM48 24H47C47 36.7025 36.7025 47 24 47V48V49C37.8071 49 49 37.8071 49 24H48ZM24 0V1C36.7025 1 47 11.2975 47 24H48H49C49 10.1929 37.8071 -1 24 -1V0ZM24 0V-1C10.1929 -1 -1 10.1929 -1 24H0H1C1 11.2975 11.2975 1 24 1V0Z" fill="#128C88" mask="url(#path-1-inside-1_3458_3742)"/>
<path d="M26.5002 15.6665H19.0002C18.5581 15.6665 18.1342 15.8421 17.8217 16.1547C17.5091 16.4672 17.3335 16.8911 17.3335 17.3332V30.6665C17.3335 31.1085 17.5091 31.5325 17.8217 31.845C18.1342 32.1576 18.5581 32.3332 19.0002 32.3332H29.0002C29.4422 32.3332 29.8661 32.1576 30.1787 31.845C30.4912 31.5325 30.6668 31.1085 30.6668 30.6665V19.8332L26.5002 15.6665Z" stroke="#128C88" stroke-width="1.25" stroke-linecap="round" stroke-linejoin="round"/>
<path d="M25.6665 15.6665V18.9998C25.6665 19.4419 25.8421 19.8658 26.1547 20.1783C26.4672 20.4909 26.8911 20.6665 27.3332 20.6665H30.6665" stroke="#128C88" stroke-width="1.25" stroke-linecap="round" stroke-linejoin="round"/>
<path d="M22.3332 21.5H20.6665" stroke="#128C88" stroke-width="1.25" stroke-linecap="round" stroke-linejoin="round"/>
<path d="M27.3332 24.8335H20.6665" stroke="#128C88" stroke-width="1.25" stroke-linecap="round" stroke-linejoin="round"/>
<path d="M27.3332 28.1665H20.6665" stroke="#128C88" stroke-width="1.25" stroke-linecap="round" stroke-linejoin="round"/>
</svg>
