<svg width="191" height="191" viewBox="0 0 191 191" fill="none" xmlns="http://www.w3.org/2000/svg">
<circle cx="95.5" cy="95.4997" r="95.4998" transform="rotate(-90 95.5 95.4997)" fill="#B9FDFF"/>
<path d="M95.5 -0.000124048C118.204 -0.00012089 140.165 8.08852 157.445 22.8151C174.725 37.5417 186.193 57.9428 189.792 80.3595C193.391 102.776 188.887 125.742 177.086 145.138C165.285 164.534 146.96 179.091 125.397 186.199C103.835 193.307 80.4453 192.5 59.4237 183.923C38.4022 175.347 21.1238 159.561 10.6875 139.398C0.251259 119.235 -2.6602 96.0134 2.47532 73.898C7.61084 51.7826 20.4574 32.2202 38.7109 18.7194L95.5 95.4997L95.5 -0.000124048Z" fill="#2FC4BD"/>
<path d="M95.5 -0.000124048C114.905 -0.000121349 133.849 5.91114 149.81 16.9465C165.772 27.9819 177.993 43.6178 184.846 61.772C191.699 79.9263 192.859 99.7375 188.172 118.568C183.485 137.398 173.173 154.353 158.608 167.176C144.044 179.999 125.92 188.082 106.648 190.347C87.3755 192.612 67.8707 188.952 50.7303 179.855C33.59 170.759 19.6275 156.656 10.702 139.426C1.77657 122.196 -1.68828 102.656 0.76885 83.407L95.5 95.4997L95.5 -0.000124048Z" fill="#046C80"/>
<path d="M95.5 -0.000124048C110.212 -0.000122001 124.726 3.39916 137.908 9.93253C151.091 16.4659 162.585 25.9567 171.495 37.6644C180.405 49.3721 186.49 62.9801 189.274 77.4268C192.058 91.8734 191.467 106.768 187.547 120.949C183.626 135.129 176.482 148.212 166.672 159.177C156.862 170.141 144.651 178.691 130.993 184.159C117.334 189.627 102.597 191.865 87.9304 190.699C73.2642 189.533 59.0657 184.994 46.4427 177.436L95.5 95.4997L95.5 -0.000124048Z" fill="#1F9C9A"/>
</svg>
