<svg width="48" height="48" viewBox="0 0 48 48" fill="none" xmlns="http://www.w3.org/2000/svg">
<mask id="path-1-inside-1_3458_3812" fill="white">
<path d="M0 24C0 10.7452 10.7452 0 24 0C37.2548 0 48 10.7452 48 24C48 37.2548 37.2548 48 24 48C10.7452 48 0 37.2548 0 24Z"/>
</mask>
<path d="M0 24C0 10.7452 10.7452 0 24 0C37.2548 0 48 10.7452 48 24C48 37.2548 37.2548 48 24 48C10.7452 48 0 37.2548 0 24Z" fill="white"/>
<path d="M24 48V47C11.2975 47 1 36.7025 1 24H0H-1C-1 37.8071 10.1929 49 24 49V48ZM48 24H47C47 36.7025 36.7025 47 24 47V48V49C37.8071 49 49 37.8071 49 24H48ZM24 0V1C36.7025 1 47 11.2975 47 24H48H49C49 10.1929 37.8071 -1 24 -1V0ZM24 0V-1C10.1929 -1 -1 10.1929 -1 24H0H1C1 11.2975 11.2975 1 24 1V0Z" fill="#128C88" mask="url(#path-1-inside-1_3458_3812)"/>
<path d="M27.3332 31.5V29.8333C27.3332 28.9493 26.982 28.1014 26.3569 27.4763C25.7317 26.8512 24.8839 26.5 23.9998 26.5H18.9998C18.1158 26.5 17.2679 26.8512 16.6428 27.4763C16.0177 28.1014 15.6665 28.9493 15.6665 29.8333V31.5" stroke="#2F9A97" stroke-width="1.25" stroke-linecap="round" stroke-linejoin="round"/>
<path d="M21.4998 23.1667C23.3408 23.1667 24.8332 21.6743 24.8332 19.8333C24.8332 17.9924 23.3408 16.5 21.4998 16.5C19.6589 16.5 18.1665 17.9924 18.1665 19.8333C18.1665 21.6743 19.6589 23.1667 21.4998 23.1667Z" stroke="#2F9A97" stroke-width="1.25" stroke-linecap="round" stroke-linejoin="round"/>
<path d="M32.3335 31.5001V29.8334C32.3329 29.0948 32.0871 28.3774 31.6346 27.7937C31.1821 27.2099 30.5486 26.793 29.8335 26.6084" stroke="#2F9A97" stroke-width="1.25" stroke-linecap="round" stroke-linejoin="round"/>
<path d="M27.3335 16.6084C28.0505 16.792 28.686 17.209 29.1399 17.7937C29.5937 18.3783 29.84 19.0974 29.84 19.8376C29.84 20.5777 29.5937 21.2968 29.1399 21.8815C28.686 22.4661 28.0505 22.8831 27.3335 23.0667" stroke="#2F9A97" stroke-width="1.25" stroke-linecap="round" stroke-linejoin="round"/>
</svg>
