<svg width="30" height="30" viewBox="0 0 30 30" fill="none" xmlns="http://www.w3.org/2000/svg">
<path d="M15 0C23.2536 0.000104717 30 6.74636 30 15C29.9999 23.2536 23.2536 29.9999 15 30C6.74636 30 9.93814e-05 23.2536 0 15C4.79586e-05 6.74632 6.74632 4.74287e-05 15 0ZM15 3.29061C8.56386 3.29065 3.29066 8.56385 3.29061 15C3.29071 21.4361 8.56389 26.7083 15 26.7084C21.4361 26.7083 26.7083 21.4361 26.7084 15C26.7083 8.56389 21.4361 3.29071 15 3.29061ZM9.66253 12.8059C10.8742 12.8059 11.8566 13.7883 11.8566 15C11.8566 16.2117 10.8742 17.1941 9.66253 17.1941H9.65051C8.439 17.1939 7.45644 16.2116 7.45644 15C7.45645 13.7884 8.43901 12.8061 9.65051 12.8059H9.66253ZM15.006 12.8059C16.2177 12.806 17.2001 13.7883 17.2001 15C17.2001 16.2117 16.2177 17.194 15.006 17.1941H14.994C13.7823 17.1941 12.7999 16.2117 12.7999 15C12.7999 13.7883 13.7823 12.8059 14.994 12.8059H15.006ZM20.3495 12.8059C21.561 12.8061 22.5436 13.7884 22.5436 15C22.5436 16.2116 21.561 17.1939 20.3495 17.1941H20.3375C19.1258 17.1941 18.1434 16.2117 18.1434 15C18.1434 13.7883 19.1258 12.8059 20.3375 12.8059H20.3495Z" fill="#128C88"/>
</svg>
