<svg width="40" height="14" viewBox="0 0 40 14" fill="none" xmlns="http://www.w3.org/2000/svg">
<path d="M10.9484 0C10.4246 0 10 0.494848 10 1.10526C10 1.71568 10.4246 2.21053 10.9484 2.21053V0ZM28.6516 2.21053C29.1754 2.21053 29.6 1.71568 29.6 1.10526C29.6 0.494848 29.1754 0 28.6516 0V2.21053ZM10.9484 5.89474C10.4246 5.89474 10 6.3896 10 7C10 7.6104 10.4246 8.10526 10.9484 8.10526V5.89474ZM26.1226 8.10526C26.6463 8.10526 27.071 7.6104 27.071 7C27.071 6.3896 26.6463 5.89474 26.1226 5.89474V8.10526ZM10.9484 11.7895C10.4246 11.7895 10 12.2843 10 12.8947C10 13.5051 10.4246 14 10.9484 14V11.7895ZM19.8 14C20.3238 14 20.7484 13.5051 20.7484 12.8947C20.7484 12.2843 20.3238 11.7895 19.8 11.7895V14ZM10.9484 2.21053H28.6516V0H10.9484V2.21053ZM10.9484 8.10526H26.1226V5.89474H10.9484V8.10526ZM10.9484 14H19.8V11.7895H10.9484V14Z" fill="#676767"/>
</svg>
