<svg width="48" height="48" viewBox="0 0 48 48" fill="none" xmlns="http://www.w3.org/2000/svg">
<mask id="path-1-inside-1_3458_3786" fill="white">
<path d="M0 24C0 10.7452 10.7452 0 24 0C37.2548 0 48 10.7452 48 24C48 37.2548 37.2548 48 24 48C10.7452 48 0 37.2548 0 24Z"/>
</mask>
<path d="M0 24C0 10.7452 10.7452 0 24 0C37.2548 0 48 10.7452 48 24C48 37.2548 37.2548 48 24 48C10.7452 48 0 37.2548 0 24Z" fill="white"/>
<path d="M24 48V47C11.2975 47 1 36.7025 1 24H0H-1C-1 37.8071 10.1929 49 24 49V48ZM48 24H47C47 36.7025 36.7025 47 24 47V48V49C37.8071 49 49 37.8071 49 24H48ZM24 0V1C36.7025 1 47 11.2975 47 24H48H49C49 10.1929 37.8071 -1 24 -1V0ZM24 0V-1C10.1929 -1 -1 10.1929 -1 24H0H1C1 11.2975 11.2975 1 24 1V0Z" fill="#128C88" mask="url(#path-1-inside-1_3458_3786)"/>
<path d="M23.9998 32.3332C28.6022 32.3332 32.3332 28.6022 32.3332 23.9998C32.3332 19.3975 28.6022 15.6665 23.9998 15.6665C19.3975 15.6665 15.6665 19.3975 15.6665 23.9998C15.6665 28.6022 19.3975 32.3332 23.9998 32.3332Z" stroke="#128C88" stroke-width="1.25" stroke-linecap="round" stroke-linejoin="round"/>
<path d="M23.9998 15.6665C21.86 17.9133 20.6665 20.8971 20.6665 23.9998C20.6665 27.1026 21.86 30.0864 23.9998 32.3332C26.1396 30.0864 27.3332 27.1026 27.3332 23.9998C27.3332 20.8971 26.1396 17.9133 23.9998 15.6665Z" stroke="#128C88" stroke-width="1.25" stroke-linecap="round" stroke-linejoin="round"/>
<path d="M15.6665 24H32.3332" stroke="#128C88" stroke-width="1.25" stroke-linecap="round" stroke-linejoin="round"/>
</svg>
