<svg width="21" height="22" viewBox="0 0 21 22" fill="none" xmlns="http://www.w3.org/2000/svg">
<path fill-rule="evenodd" clip-rule="evenodd" d="M3.01142 9.30109C2.85419 4.89347 6.20376 1.18634 10.5007 1.01231C14.7977 1.18634 18.1473 4.89347 17.9901 9.30109C17.9901 11.1318 19.9294 12.9152 19.9863 14.75C19.9863 14.776 19.9863 14.8019 19.9863 14.8279C20.0283 16.0034 19.1348 16.992 17.9887 17.038H13.6626C13.6666 17.9388 13.3355 18.8073 12.737 19.4664C12.1614 20.1075 11.3504 20.4722 10.5007 20.4722C9.65096 20.4722 8.84015 20.1075 8.26454 19.4664C7.66587 18.8073 7.33483 17.9388 7.33885 17.038H3.01142C1.86536 16.992 0.971765 16.0034 1.01373 14.8279C1.01373 14.8019 1.01373 14.776 1.01373 14.75C1.07201 12.9207 3.01142 11.1332 3.01142 9.30109Z" stroke="#385C7F" stroke-width="2" stroke-linecap="round" stroke-linejoin="round"/>
</svg>
