<svg width="48" height="48" viewBox="0 0 48 48" fill="none" xmlns="http://www.w3.org/2000/svg">
<mask id="path-1-inside-1_3458_3800" fill="white">
<path d="M0 24C0 10.7452 10.7452 0 24 0C37.2548 0 48 10.7452 48 24C48 37.2548 37.2548 48 24 48C10.7452 48 0 37.2548 0 24Z"/>
</mask>
<path d="M0 24C0 10.7452 10.7452 0 24 0C37.2548 0 48 10.7452 48 24C48 37.2548 37.2548 48 24 48C10.7452 48 0 37.2548 0 24Z" fill="white"/>
<path d="M24 48V47C11.2975 47 1 36.7025 1 24H0H-1C-1 37.8071 10.1929 49 24 49V48ZM48 24H47C47 36.7025 36.7025 47 24 47V48V49C37.8071 49 49 37.8071 49 24H48ZM24 0V1C36.7025 1 47 11.2975 47 24H48H49C49 10.1929 37.8071 -1 24 -1V0ZM24 0V-1C10.1929 -1 -1 10.1929 -1 24H0H1C1 11.2975 11.2975 1 24 1V0Z" fill="#128C88" mask="url(#path-1-inside-1_3458_3800)"/>
<path d="M17.3332 25.6667C17.1755 25.6673 17.0209 25.623 16.8874 25.5392C16.7538 25.4554 16.6468 25.3354 16.5787 25.1931C16.5106 25.0509 16.4843 24.8922 16.5028 24.7356C16.5213 24.579 16.5839 24.4309 16.6832 24.3084L24.9332 15.8084C24.9951 15.737 25.0795 15.6887 25.1724 15.6715C25.2653 15.6543 25.3613 15.6692 25.4447 15.7138C25.528 15.7584 25.5937 15.83 25.631 15.9168C25.6683 16.0037 25.675 16.1006 25.6499 16.1917L24.0499 21.2084C24.0027 21.3347 23.9869 21.4705 24.0037 21.6042C24.0206 21.738 24.0696 21.8656 24.1467 21.9762C24.2237 22.0869 24.3264 22.1771 24.446 22.2394C24.5656 22.3016 24.6984 22.3338 24.8332 22.3334H30.6666C30.8243 22.3329 30.9789 22.3771 31.1124 22.4609C31.246 22.5447 31.3531 22.6648 31.4211 22.807C31.4892 22.9493 31.5155 23.1079 31.497 23.2645C31.4785 23.4211 31.4159 23.5693 31.3166 23.6917L23.0666 32.1917C23.0047 32.2632 22.9204 32.3114 22.8274 32.3286C22.7345 32.3458 22.6385 32.3309 22.5551 32.2863C22.4718 32.2417 22.4061 32.1701 22.3688 32.0833C22.3315 31.9965 22.3248 31.8995 22.3499 31.8084L23.9499 26.7917C23.9971 26.6655 24.0129 26.5296 23.9961 26.3959C23.9792 26.2621 23.9302 26.1345 23.8532 26.0239C23.7761 25.9132 23.6734 25.823 23.5538 25.7608C23.4343 25.6985 23.3014 25.6663 23.1666 25.6667H17.3332Z" stroke="#2F9A97" stroke-width="1.25" stroke-linecap="round" stroke-linejoin="round"/>
</svg>
