<svg width="56" height="56" viewBox="0 0 56 56" fill="none" xmlns="http://www.w3.org/2000/svg">
<circle cx="28" cy="28" r="28" fill="url(#paint0_linear_3120_2166)"/>
<g clip-path="url(#clip0_3120_2166)">
<path d="M39.6666 20.043L26.3549 33.3663L21.4083 28.4197L23.0533 26.7747L26.3549 30.0763L38.0216 18.4097L39.6666 20.043ZM27.9999 37.333C22.8549 37.333 18.6666 33.1447 18.6666 27.9997C18.6666 22.8547 22.8549 18.6663 27.9999 18.6663C29.8316 18.6663 31.5466 19.203 32.9933 20.1247L34.6849 18.433C32.7833 17.1147 30.4849 16.333 27.9999 16.333C21.5599 16.333 16.3333 21.5597 16.3333 27.9997C16.3333 34.4397 21.5599 39.6663 27.9999 39.6663C30.0183 39.6663 31.9199 39.153 33.5766 38.243L31.8266 36.493C30.6599 37.0297 29.3649 37.333 27.9999 37.333ZM36.1666 31.4997H32.6666V33.833H36.1666V37.333H38.4999V33.833H41.9999V31.4997H38.4999V27.9997H36.1666V31.4997Z" fill="white"/>
</g>
<defs>
<linearGradient id="paint0_linear_3120_2166" x1="0" y1="28" x2="56" y2="28" gradientUnits="userSpaceOnUse">
<stop stop-color="#128C88"/>
<stop offset="1" stop-color="#5EEAF8"/>
</linearGradient>
<clipPath id="clip0_3120_2166">
<rect width="28" height="28" fill="white" transform="translate(14 14)"/>
</clipPath>
</defs>
</svg>
